version 1.01
198
[0.00151035504,-0.117748499,-1.97970998][0,0,-1][0.517589986,0.228314996,0]
[-0.101218,-0.0601825006,-1.97970998][0,0,-1][0.545166016,0.271589041,0]
[-0.00151035504,0.117748499,-1.97970998][0,0,-1][0.47439,0.382652998,0]
[-0.101218,-0.0601825006,-1.97970998][0,0,-1][0.545166016,0.271589041,0]
[-0.102728002,0.0575659983,-1.97970998][0,0,-1][0.523566008,0.348757029,0]
[-0.00151035504,0.117748499,-1.97970998][0,0,-1][0.47439,0.382652998,0]
[-0.00151035504,0.117748499,-1.97970998][0,0,-1][0.47439,0.382652998,0]
[0.101218,0.0601825006,-1.97970998][0,0,-1][0.446814001,0.339379013,0]
[0.00151035504,-0.117748499,-1.97970998][0,0,-1][0.517589986,0.228314996,0]
[0.101218,0.0601825006,-1.97970998][0,0,-1][0.446814001,0.339379013,0]
[0.102728002,-0.0575659983,-1.97970998][0,0,-1][0.468412995,0.262210011,0]
[0.00151035504,-0.117748499,-1.97970998][0,0,-1][0.517589986,0.228314996,0]
[0.102728002,-0.0575659983,-1.97970998][0,0,-1][0.0894550011,0.0159639716,0]
[0.148023501,-0.0829479992,-1.83599997][0.487748891,-0.820322812,-0.298615932][0.0894550011,0.0843089819,0]
[0.00151035504,-0.117748499,-1.97970998][0,0,-1][0.0334049985,0.0159639716,0]
[0.148023501,-0.0829479992,-1.83599997][0.487748891,-0.820322812,-0.298615932][0.0894550011,0.0843089819,0]
[0.0021764501,-0.169666007,-1.83599997][0.487748295,-0.820323467,-0.298615187][0.00869200006,0.0843089819,0]
[0.00151035504,-0.117748499,-1.97970998][0,0,-1][0.0334049985,0.0159639716,0]
[0.00151035504,-0.117748499,-1.97970998][0,0,-1][0.264701009,0.0152390003,0]
[0.0021764501,-0.169666007,-1.83599997][0.487748295,-0.820323467,-0.298615187][0.278901994,0.0847209692,0]
[-0.101218,-0.0601825006,-1.97970998][0,0,-1][0.200286999,0.0152390003,0]
[0.0021764501,-0.169666007,-1.83599997][0.487748295,-0.820323467,-0.298615187][0.278901994,0.0847209692,0]
[-0.145846993,-0.0867175013,-1.83599997][-0.466547191,-0.832564294,-0.298614115][0.186085999,0.0847209692,0]
[-0.101218,-0.0601825006,-1.97970998][0,0,-1][0.200286999,0.0152390003,0]
[-0.101218,-0.0601825006,-1.97970998][0,0,-1][0.145922005,0.0177479982,0]
[-0.145846993,-0.0867175013,-1.83599997][-0.466547191,-0.832564294,-0.298614115][0.170635,0.0860930085,0]
[-0.102728002,0.0575659983,-1.97970998][0,0,-1][0.0898720026,0.0177479982,0]
[-0.145846993,-0.0867175013,-1.83599997][-0.466547191,-0.832564294,-0.298614115][0.170635,0.0860930085,0]
[-0.148023501,0.0829479992,-1.83599997][-0.95429486,-0.0122415982,-0.298615962][0.0898720026,0.0860930085,0]
[-0.102728002,0.0575659983,-1.97970998][0,0,-1][0.0898720026,0.0177479982,0]
[-0.102728002,0.0575659983,-1.97970998][0,0,-1][0.0898720026,0.0177479982,0]
[-0.148023501,0.0829479992,-1.83599997][-0.95429486,-0.0122415982,-0.298615962][0.0898720026,0.0860930085,0]
[-0.00151035504,0.117748499,-1.97970998][0,0,-1][0.0338229984,0.0177479982,0]
[-0.148023501,0.0829479992,-1.83599997][-0.95429486,-0.0122415982,-0.298615962][0.0898720026,0.0860930085,0]
[-0.0021764501,0.169666007,-1.83599997][-0.487748295,0.820323467,-0.298615187][0.00910899974,0.0860930085,0]
[-0.00151035504,0.117748499,-1.97970998][0,0,-1][0.0338229984,0.0177479982,0]
[-0.00151035504,0.117748499,-1.97970998][0,0,-1][0.264400989,0.0152400136,0]
[-0.0021764501,0.169666007,-1.83599997][-0.487748295,0.820323467,-0.298615187][0.278602004,0.0847200155,0]
[0.101218,0.0601825006,-1.97970998][0,0,-1][0.199985996,0.0152400136,0]
[-0.0021764501,0.169666007,-1.83599997][-0.487748295,0.820323467,-0.298615187][0.278602004,0.0847200155,0]
[0.145846993,0.0867175013,-1.83599997][0.466547191,0.832564294,-0.298614115][0.185784996,0.0847200155,0]
[0.101218,0.0601825006,-1.97970998][0,0,-1][0.199985996,0.0152400136,0]
[0.101218,0.0601825006,-1.97970998][0,0,-1][0.145504996,0.0159639716,0]
[0.145846993,0.0867175013,-1.83599997][0.466547191,0.832564294,-0.298614115][0.170218006,0.0843089819,0]
[0.102728002,-0.0575659983,-1.97970998][0,0,-1][0.0894550011,0.0159639716,0]
[0.145846993,0.0867175013,-1.83599997][0.466547191,0.832564294,-0.298614115][0.170218006,0.0843089819,0]
[0.148023501,-0.0829479992,-1.83599997][0.487748891,-0.820322812,-0.298615932][0.0894550011,0.0843089819,0]
[0.102728002,-0.0575659983,-1.97970998][0,0,-1][0.0894550011,0.0159639716,0]
[0.148023501,-0.0829479992,-1.83599997][0.487748891,-0.820322812,-0.298615932][0.0894550011,0.0826910138,0]
[0.102728002,-0.0575659983,-1.70714498][0.482529998,-0.811546981,0.329479009][0.0894550011,0.143970966,0]
[0.0021764501,-0.169666007,-1.83599997][0.487748295,-0.820323467,-0.298615187][0.00869200006,0.0826910138,0]
[0.102728002,-0.0575659983,-1.70714498][0.482529998,-0.811546981,0.329479009][0.0894550011,0.143970966,0]
[0.00151035504,-0.117748499,-1.70714498][0.482530892,-0.811546803,0.329477906][0.0334049985,0.143970966,0]
[0.0021764501,-0.169666007,-1.83599997][0.487748295,-0.820323467,-0.298615187][0.00869200006,0.0826910138,0]
[0.0021764501,-0.169666007,-1.83599997][0.487748295,-0.820323467,-0.298615187][0.278901994,0.0847209692,0]
[0.00151035504,-0.117748499,-1.70714498][0.482530892,-0.811546803,0.329477906][0.264701009,0.147019982,0]
[-0.145846993,-0.0867175013,-1.83599997][-0.466547191,-0.832564294,-0.298614115][0.186085999,0.0847209692,0]
[0.00151035504,-0.117748499,-1.70714498][0.482530892,-0.811546803,0.329477906][0.264701009,0.147019982,0]
[-0.101218,-0.0601825006,-1.70714498][-0.461555272,-0.823657453,0.329477221][0.200286999,0.147019982,0]
[-0.145846993,-0.0867175013,-1.83599997][-0.466547191,-0.832564294,-0.298614115][0.186085999,0.0847209692,0]
[-0.145846993,-0.0867175013,-1.83599997][-0.466547191,-0.832564294,-0.298614115][0.170635,0.0812380314,0]
[-0.101218,-0.0601825006,-1.70714498][-0.461555272,-0.823657453,0.329477221][0.145922005,0.142517984,0]
[-0.148023501,0.0829479992,-1.83599997][-0.95429486,-0.0122415982,-0.298615962][0.0898720026,0.0812380314,0]
[-0.101218,-0.0601825006,-1.70714498][-0.461555272,-0.823657453,0.329477221][0.145922005,0.142517984,0]
[-0.102728002,0.0575659983,-1.70714498][-0.94408524,-0.0121097025,0.329479098][0.0898720026,0.142517984,0]
[-0.148023501,0.0829479992,-1.83599997][-0.95429486,-0.0122415982,-0.298615962][0.0898720026,0.0812380314,0]
[-0.148023501,0.0829479992,-1.83599997][-0.95429486,-0.0122415982,-0.298615962][0.0898720026,0.0812380314,0]
[-0.102728002,0.0575659983,-1.70714498][-0.94408524,-0.0121097025,0.329479098][0.0898720026,0.142517984,0]
[-0.0021764501,0.169666007,-1.83599997][-0.487748295,0.820323467,-0.298615187][0.00910899974,0.0812380314,0]
[-0.102728002,0.0575659983,-1.70714498][-0.94408524,-0.0121097025,0.329479098][0.0898720026,0.142517984,0]
[-0.00151035504,0.117748499,-1.70714498][-0.482530892,0.811546803,0.329477906][0.0338229984,0.142517984,0]
[-0.0021764501,0.169666007,-1.83599997][-0.487748295,0.820323467,-0.298615187][0.00910899974,0.0812380314,0]
[-0.0021764501,0.169666007,-1.83599997][-0.487748295,0.820323467,-0.298615187][0.278602004,0.0847200155,0]
[-0.00151035504,0.117748499,-1.70714498][-0.482530892,0.811546803,0.329477906][0.264400989,0.147019029,0]
[0.145846993,0.0867175013,-1.83599997][0.466547191,0.832564294,-0.298614115][0.185784996,0.0847200155,0]
[-0.00151035504,0.117748499,-1.70714498][-0.482530892,0.811546803,0.329477906][0.264400989,0.147019029,0]
[0.101218,0.0601825006,-1.70714498][0.461555272,0.823657453,0.329477221][0.199985996,0.147019029,0]
[0.145846993,0.0867175013,-1.83599997][0.466547191,0.832564294,-0.298614115][0.185784996,0.0847200155,0]
[0.145846993,0.0867175013,-1.83599997][0.466547191,0.832564294,-0.298614115][0.170218006,0.0826910138,0]
[0.101218,0.0601825006,-1.70714498][0.461555272,0.823657453,0.329477221][0.145504996,0.143970966,0]
[0.148023501,-0.0829479992,-1.83599997][0.487748891,-0.820322812,-0.298615932][0.0894550011,0.0826910138,0]
[0.101218,0.0601825006,-1.70714498][0.461555272,0.823657453,0.329477221][0.145504996,0.143970966,0]
[0.102728002,-0.0575659983,-1.70714498][0.482529998,-0.811546981,0.329479009][0.0894550011,0.143970966,0]
[0.148023501,-0.0829479992,-1.83599997][0.487748891,-0.820322812,-0.298615932][0.0894550011,0.0826910138,0]
[0.102728002,-0.0575659983,-1.70714498][0.482529998,-0.811546981,0.329479009][0.132377997,0.161417007,0]
[0.102728002,-0.0575659983,-1.01071501][0.511066914,-0.85954088,0][0.132377997,0.497819006,0]
[0.00151035504,-0.117748499,-1.70714498][0.482530892,-0.811546803,0.329477906][0.0759079978,0.161417007,0]
[0.102728002,-0.0575659983,-1.01071501][0.511066914,-0.85954088,0][0.132377997,0.497819006,0]
[0.00151035504,-0.117748499,-1.01071501][0.511066914,-0.85954088,0][0.0759079978,0.497819006,0]
[0.00151035504,-0.117748499,-1.70714498][0.482530892,-0.811546803,0.329477906][0.0759079978,0.161417007,0]
[0.00151035504,-0.117748499,-1.70714498][0.482530892,-0.811546803,0.329477906][0.264701009,0.163200974,0]
[0.00151035504,-0.117748499,-1.01071501][0.511066914,-0.85954088,0][0.264701009,0.499909997,0]
[-0.101218,-0.0601825006,-1.70714498][-0.461555272,-0.823657453,0.329477221][0.200286999,0.163200974,0]
[0.00151035504,-0.117748499,-1.01071501][0.511066914,-0.85954088,0][0.264701009,0.499909997,0]
[-0.101218,-0.0601825006,-1.01071501][-0.48885113,-0.872367203,0][0.200286999,0.499909997,0]
[-0.101218,-0.0601825006,-1.70714498][-0.461555272,-0.823657453,0.329477221][0.200286999,0.163200974,0]
[-0.101218,-0.0601825006,-1.70714498][-0.461555272,-0.823657453,0.329477221][0.189267993,0.161585987,0]
[-0.101218,-0.0601825006,-1.01071501][-0.48885113,-0.872367203,0][0.189267993,0.497987032,0]
[-0.102728002,0.0575659983,-1.70714498][-0.94408524,-0.0121097025,0.329479098][0.132798001,0.161585987,0]
[-0.101218,-0.0601825006,-1.01071501][-0.48885113,-0.872367203,0][0.189267993,0.497987032,0]
[-0.102728002,0.0575659983,-1.01071501][-0.999917746,-0.012825897,0][0.132798001,0.497987032,0]
[-0.102728002,0.0575659983,-1.70714498][-0.94408524,-0.0121097025,0.329479098][0.132798001,0.161585987,0]
[-0.102728002,0.0575659983,-1.70714498][-0.94408524,-0.0121097025,0.329479098][0.132798001,0.161585987,0]
[-0.102728002,0.0575659983,-1.01071501][-0.999917746,-0.012825897,0][0.132798001,0.497987032,0]
[-0.00151035504,0.117748499,-1.70714498][-0.482530892,0.811546803,0.329477906][0.0763280019,0.161585987,0]
[-0.102728002,0.0575659983,-1.01071501][-0.999917746,-0.012825897,0][0.132798001,0.497987032,0]
[-0.00151035504,0.117748499,-1.01071501][-0.511066914,0.85954088,0][0.0763280019,0.497987032,0]
[-0.00151035504,0.117748499,-1.70714498][-0.482530892,0.811546803,0.329477906][0.0763280019,0.161585987,0]
[-0.00151035504,0.117748499,-1.70714498][-0.482530892,0.811546803,0.329477906][0.264400989,0.163200021,0]
[-0.00151035504,0.117748499,-1.01071501][-0.511066914,0.85954088,0][0.264400989,0.499909997,0]
[0.101218,0.0601825006,-1.70714498][0.461555272,0.823657453,0.329477221][0.199985996,0.163200021,0]
[-0.00151035504,0.117748499,-1.01071501][-0.511066914,0.85954088,0][0.264400989,0.499909997,0]
[0.101218,0.0601825006,-1.01071501][0.48885113,0.872367203,0][0.199985996,0.499909997,0]
[0.101218,0.0601825006,-1.70714498][0.461555272,0.823657453,0.329477221][0.199985996,0.163200021,0]
[0.101218,0.0601825006,-1.70714498][0.461555272,0.823657453,0.329477221][0.188848004,0.161417007,0]
[0.101218,0.0601825006,-1.01071501][0.48885113,0.872367203,0][0.188848004,0.497819006,0]
[0.102728002,-0.0575659983,-1.70714498][0.482529998,-0.811546981,0.329479009][0.132377997,0.161417007,0]
[0.101218,0.0601825006,-1.01071501][0.48885113,0.872367203,0][0.188848004,0.497819006,0]
[0.102728002,-0.0575659983,-1.01071501][0.511066914,-0.85954088,0][0.132377997,0.497819006,0]
[0.102728002,-0.0575659983,-1.70714498][0.482529998,-0.811546981,0.329479009][0.132377997,0.161417007,0]
[0.102728002,-0.0575659983,-1.01071501][0.511066914,-0.85954088,0][0.118046001,0.860840023,0]
[0.148023501,-0.0829479992,-0.935500026][0.438655734,-0.737755597,-0.513125718][0.118046001,0.896610975,0]
[0.00151035504,-0.117748499,-1.01071501][0.511066914,-0.85954088,0][0.0619970001,0.860840023,0]
[0.148023501,-0.0829479992,-0.935500026][0.438655734,-0.737755597,-0.513125718][0.118046001,0.896610975,0]
[0.0021764501,-0.169666007,-0.935500026][0.438655138,-0.737756252,-0.513125181][0.0372829996,0.896610975,0]
[0.00151035504,-0.117748499,-1.01071501][0.511066914,-0.85954088,0][0.0619970001,0.860840023,0]
[0.00151035504,-0.117748499,-1.01071501][0.511066914,-0.85954088,0][0.292279989,0.859686971,0]
[0.0021764501,-0.169666007,-0.935500026][0.438655138,-0.737756252,-0.513125181][0.306481004,0.896052003,0]
[-0.101218,-0.0601825006,-1.01071501][-0.48885113,-0.872367203,0][0.227865994,0.859686971,0]
[0.0021764501,-0.169666007,-0.935500026][0.438655138,-0.737756252,-0.513125181][0.306481004,0.896052003,0]
[-0.145846993,-0.0867175013,-0.935500026][-0.419588059,-0.748766065,-0.513123035][0.213664994,0.896052003,0]
[-0.101218,-0.0601825006,-1.01071501][-0.48885113,-0.872367203,0][0.227865994,0.859686971,0]
[-0.101218,-0.0601825006,-1.01071501][-0.48885113,-0.872367203,0][0.173501,0.861006021,0]
[-0.145846993,-0.0867175013,-0.935500026][-0.419588059,-0.748766065,-0.513123035][0.198213995,0.896776021,0]
[-0.102728002,0.0575659983,-1.01071501][-0.999917746,-0.012825897,0][0.117450997,0.861006021,0]
[-0.145846993,-0.0867175013,-0.935500026][-0.419588059,-0.748766065,-0.513123035][0.198213995,0.896776021,0]
[-0.148023501,0.0829479992,-0.935500026][-0.858243167,-0.0110094026,-0.513125122][0.117450997,0.896776021,0]
[-0.102728002,0.0575659983,-1.01071501][-0.999917746,-0.012825897,0][0.117450997,0.861006021,0]
[-0.102728002,0.0575659983,-1.01071501][-0.999917746,-0.012825897,0][0.117450997,0.861006021,0]
[-0.148023501,0.0829479992,-0.935500026][-0.858243167,-0.0110094026,-0.513125122][0.117450997,0.896776021,0]
[-0.00151035504,0.117748499,-1.01071501][-0.511066914,0.85954088,0][0.0614020005,0.861006021,0]
[-0.148023501,0.0829479992,-0.935500026][-0.858243167,-0.0110094026,-0.513125122][0.117450997,0.896776021,0]
[-0.0021764501,0.169666007,-0.935500026][-0.438655138,0.737756252,-0.513125181][0.036688,0.896776021,0]
[-0.00151035504,0.117748499,-1.01071501][-0.511066914,0.85954088,0][0.0614020005,0.861006021,0]
[-0.00151035504,0.117748499,-1.01071501][-0.511066914,0.85954088,0][0.291979998,0.859686971,0]
[-0.0021764501,0.169666007,-0.935500026][-0.438655138,0.737756252,-0.513125181][0.306181014,0.896052003,0]
[0.101218,0.0601825006,-1.01071501][0.48885113,0.872367203,0][0.227565005,0.859686971,0]
[-0.0021764501,0.169666007,-0.935500026][-0.438655138,0.737756252,-0.513125181][0.306181014,0.896052003,0]
[0.145846993,0.0867175013,-0.935500026][0.419588059,0.748766065,-0.513123035][0.213364005,0.896052003,0]
[0.101218,0.0601825006,-1.01071501][0.48885113,0.872367203,0][0.227565005,0.859686971,0]
[0.101218,0.0601825006,-1.01071501][0.48885113,0.872367203,0][0.174096003,0.860840023,0]
[0.145846993,0.0867175013,-0.935500026][0.419588059,0.748766065,-0.513123035][0.198808998,0.896610975,0]
[0.102728002,-0.0575659983,-1.01071501][0.511066914,-0.85954088,0][0.118046001,0.860840023,0]
[0.145846993,0.0867175013,-0.935500026][0.419588059,0.748766065,-0.513123035][0.198808998,0.896610975,0]
[0.148023501,-0.0829479992,-0.935500026][0.438655734,-0.737755597,-0.513125718][0.118046001,0.896610975,0]
[0.102728002,-0.0575659983,-1.01071501][0.511066914,-0.85954088,0][0.118046001,0.860840023,0]
[0.0724020004,-0.0976509973,-0.737384975][0.22804597,0.17118299,0.958483875][0.517145991,0.0300880075,0]
[0.210017994,-0.0821529999,-0.772894979][0.22804597,0.17118299,0.958483875][0.571520984,0.0327500105,0]
[0.146935001,0.00188469503,-0.772894979][0.22804597,0.17118299,0.958483875][0.563751996,0.0911979675,0]
[0.0716969967,-0.0426552482,-0.613884985][0.591454923,-0.735343933,0.330832958][0.837734997,0.548000991,0]
[0.0724020004,-0.0976509973,-0.737384975][0.22804597,0.17118299,0.958483875][0.870688021,0.514985025,0]
[0.146935001,0.00188469503,-0.649394989][0.591454923,-0.735343933,0.330832958][0.847211003,0.600428998,0]
[0.0724020004,-0.0976509973,-0.737384975][0.22804597,0.17118299,0.958483875][0.870688021,0.514985025,0]
[0.146935001,0.00188469503,-0.772894979][0.22804597,0.17118299,0.958483875][0.880164981,0.600428998,0]
[0.146935001,0.00188469503,-0.649394989][0.591454923,-0.735343933,0.330832958][0.847211003,0.600428998,0]
[0.148023501,-0.0829479992,-0.935500026][0.438655734,-0.737755597,-0.513125718][0.995773971,0.765954971,0]
[0.0724020004,-0.0976509973,-0.737384975][0.22804597,0.17118299,0.958483875][0.937785029,0.728820026,0]
[0.0021764501,-0.169666007,-0.935500026][0.438655138,-0.737756252,-0.513125181][0.995773971,0.712357998,0]
[0.0724020004,-0.0976509973,-0.737384975][0.22804597,0.17118299,0.958483875][0.937785029,0.728820026,0]
[0.00126429496,-0.0985630006,-0.737384975][0.0120664956,-0.941131651,0.337824881][0.937785029,0.689897001,0]
[0.0021764501,-0.169666007,-0.935500026][0.438655138,-0.737756252,-0.513125181][0.995773971,0.712357998,0]
[-0.0698734969,-0.099475503,-0.737384975][-0.232362002,0.165277004,0.958483994][0.476541013,0.0238549709,0]
[-0.146935001,-0.00188469503,-0.772894979][-0.232362002,0.165277004,0.958483994][0.466096014,0.091934979,0]
[-0.207841501,-0.0875129998,-0.772894979][-0.232362002,0.165277004,0.958483994][0.427203,0.0391889811,0]
[-0.0705789998,-0.0444801003,-0.613884985][0.0117146,-0.913430989,0.406825006][0.843196988,0.667187989,0]
[-0.0698734969,-0.099475503,-0.737384975][-0.232362002,0.165277004,0.958483994][0.87628901,0.684490979,0]
[0.000558655011,-0.0435677506,-0.613884985][0.0117146,-0.913430989,0.406825006][0.843196988,0.705953002,0]
[-0.0698734969,-0.099475503,-0.737384975][-0.232362002,0.165277004,0.958483994][0.87628901,0.684490979,0]
[0.00126429496,-0.0985630006,-0.737384975][0.0120664956,-0.941131651,0.337824881][0.87628901,0.723254979,0]
[0.000558655011,-0.0435677506,-0.613884985][0.0117146,-0.913430989,0.406825006][0.843196988,0.705953002,0]
[-0.0724020004,0.0976509973,-0.737384975][-0.22804597,-0.17118299,0.958483875][0.512701988,0.153044999,0]
[-0.210017994,0.0821529999,-0.772894979][-0.22804597,-0.17118299,0.958483875][0.458326995,0.150382996,0]
[-0.146935001,-0.00188469503,-0.772894979][-0.232362002,0.165277004,0.958483994][0.466096014,0.091934979,0]
[-0.0716969967,0.0426552482,-0.613884985][-0.591454923,0.735343933,0.330832958][0.835826993,0.548527002,0]
[-0.0724020004,0.0976509973,-0.737384975][-0.22804597,-0.17118299,0.958483875][0.868780017,0.515513003,0]
[-0.146935001,-0.00188469503,-0.649394989][-0.591454923,0.735343933,0.330832958][0.845304012,0.600955009,0]
[-0.0724020004,0.0976509973,-0.737384975][-0.22804597,-0.17118299,0.958483875][0.868780017,0.515513003,0]
[-0.146935001,-0.00188469503,-0.772894979][-0.232362002,0.165277004,0.958483994][0.878256977,0.600955009,0]
[-0.146935001,-0.00188469503,-0.649394989][-0.591454923,0.735343933,0.330832958][0.845304012,0.600955009,0]
[-0.148023501,0.0829479992,-0.935500026][-0.858243167,-0.0110094026,-0.513125122][0.995774984,0.765606999,0]
[-0.0724020004,0.0976509973,-0.737384975][-0.22804597,-0.17118299,0.958483875][0.937785983,0.728473008,0]
[-0.0021764501,0.169666007,-0.935500026][-0.438655138,0.737756252,-0.513125181][0.995774984,0.71201098,0]
[-0.0724020004,0.0976509973,-0.737384975][-0.22804597,-0.17118299,0.958483875][0.937785983,0.728473008,0]
[-0.00126429496,0.0985630006,-0.737384975][-0.0120664956,0.941131651,0.337824881][0.937785983,0.689549983,0]
[-0.0021764501,0.169666007,-0.935500026][-0.438655138,0.737756252,-0.513125181][0.995774984,0.71201098,0]
[0.0698734969,0.099475503,-0.737384975][0.232362002,-0.165277004,0.958483994][0.553306997,0.159278989,0]
[0.146935001,0.00188469503,-0.772894979][0.22804597,0.17118299,0.958483875][0.563751996,0.0911979675,0]
[0.207841501,0.0875129998,-0.772894979][0.232362002,-0.165277004,0.958483994][0.60264498,0.143944025,0]
[0.0705789998,0.0444801003,-0.613884985][-0.0117146,0.913430989,0.406825006][0.843195975,0.666842997,0]
[0.0698734969,0.099475503,-0.737384975][0.232362002,-0.165277004,0.958483994][0.876290023,0.684144974,0]
[-0.000558655011,0.0435677506,-0.613884985][-0.0117146,0.913430989,0.406825006][0.843195975,0.705606997,0]
[0.0698734969,0.099475503,-0.737384975][0.232362002,-0.165277004,0.958483994][0.876290023,0.684144974,0]
[-0.00126429496,0.0985630006,-0.737384975][-0.0120664956,0.941131651,0.337824881][0.876290023,0.722908974,0]
[-0.000558655011,0.0435677506,-0.613884985][-0.0117146,0.913430989,0.406825006][0.843195975,0.705606997,0]
[0.148023501,-0.0829479992,-0.935500026][0.438655734,-0.737755597,-0.513125718][0.995773971,0.765954971,0]
[0.210017994,-0.0821529999,-0.935500026][0.0127960956,-0.997524619,-0.0691442788][0.995773971,0.799874008,0]
[0.0724020004,-0.0976509973,-0.737384975][0.22804597,0.17118299,0.958483875][0.937785029,0.728820026,0]
[0.210017994,-0.0821529999,-0.935500026][0.0127960956,-0.997524619,-0.0691442788][0.995773971,0.799874008,0]
[0.210017994,-0.0821529999,-0.772894979][0.22804597,0.17118299,0.958483875][0.948179007,0.799874008,0]
[0.0724020004,-0.0976509973,-0.737384975][0.22804597,0.17118299,0.958483875][0.937785029,0.728820026,0]
[0.0698734969,0.099475503,-0.737384975][0.232362002,-0.165277004,0.958483994][0.937785983,0.650627971,0]
[0.207841501,0.0875129998,-0.772894979][0.232362002,-0.165277004,0.958483994][0.948179007,0.570897996,0]
[0.145846993,0.0867175013,-0.935500026][0.419588059,0.748766065,-0.513123035][0.995774984,0.604817986,0]
[0.207841501,0.0875129998,-0.772894979][0.232362002,-0.165277004,0.958483994][0.948179007,0.570897996,0]
[0.207841501,0.0875129998,-0.935500026][-0.0128268972,0.999917746,0][0.995774984,0.570897996,0]
[0.145846993,0.0867175013,-0.935500026][0.419588059,0.748766065,-0.513123035][0.995774984,0.604817986,0]
[0.207841501,0.0875129998,-0.772894979][0.232362002,-0.165277004,0.958483994][0.60264498,0.143944025,0]
[0.146935001,0.00188469503,-0.772894979][0.22804597,0.17118299,0.958483875][0.563751996,0.0911979675,0]
[0.210017994,-0.0821529999,-0.772894979][0.22804597,0.17118299,0.958483875][0.571520984,0.0327500105,0]
[0.145846993,0.0867175013,-0.935500026][0.419588059,0.748766065,-0.513123035][0.425130993,0.354323983,0]
[0.207841501,0.0875129998,-0.935500026][-0.0128268972,0.999917746,0][0.401800007,0.351472974,0]
[0.148023501,-0.0829479992,-0.935500026][0.438655734,-0.737755597,-0.513125718][0.456254989,0.243129969,0]
[0.207841501,0.0875129998,-0.935500026][-0.0128268972,0.999917746,0][0.401800007,0.351472974,0]
[0.210017994,-0.0821529999,-0.935500026][0.0127960956,-0.997524619,-0.0691442788][0.432924002,0.240280032,0]
[0.148023501,-0.0829479992,-0.935500026][0.438655734,-0.737755597,-0.513125718][0.456254989,0.243129969,0]
[-0.148023501,0.0829479992,-0.935500026][-0.858243167,-0.0110094026,-0.513125122][0.995774984,0.765606999,0]
[-0.210017994,0.0821529999,-0.935500026][-0.0127960956,0.997524619,-0.0691442788][0.995774984,0.799526989,0]
[-0.0724020004,0.0976509973,-0.737384975][-0.22804597,-0.17118299,0.958483875][0.937785983,0.728473008,0]
[-0.210017994,0.0821529999,-0.935500026][-0.0127960956,0.997524619,-0.0691442788][0.995774984,0.799526989,0]
[-0.210017994,0.0821529999,-0.772894979][-0.22804597,-0.17118299,0.958483875][0.948179007,0.799526989,0]
[-0.0724020004,0.0976509973,-0.737384975][-0.22804597,-0.17118299,0.958483875][0.937785983,0.728473008,0]
[-0.0698734969,-0.099475503,-0.737384975][-0.232362002,0.165277004,0.958483994][0.937785029,0.650974989,0]
[-0.207841501,-0.0875129998,-0.772894979][-0.232362002,0.165277004,0.958483994][0.948179007,0.571245015,0]
[-0.145846993,-0.0867175013,-0.935500026][-0.419588059,-0.748766065,-0.513123035][0.995773971,0.605165005,0]
[-0.207841501,-0.0875129998,-0.772894979][-0.232362002,0.165277004,0.958483994][0.948179007,0.571245015,0]
[-0.207841501,-0.0875129998,-0.935500026][0.0128268972,-0.999917746,0][0.995773971,0.571245015,0]
[-0.145846993,-0.0867175013,-0.935500026][-0.419588059,-0.748766065,-0.513123035][0.995773971,0.605165005,0]
[-0.207841501,-0.0875129998,-0.772894979][-0.232362002,0.165277004,0.958483994][0.427203,0.0391889811,0]
[-0.146935001,-0.00188469503,-0.772894979][-0.232362002,0.165277004,0.958483994][0.466096014,0.091934979,0]
[-0.210017994,0.0821529999,-0.772894979][-0.22804597,-0.17118299,0.958483875][0.458326995,0.150382996,0]
[-0.145846993,-0.0867175013,-0.935500026][-0.419588059,-0.748766065,-0.513123035][0.566848993,0.256644011,0]
[-0.207841501,-0.0875129998,-0.935500026][0.0128268972,-0.999917746,0][0.59017998,0.259494007,0]
[-0.148023501,0.0829479992,-0.935500026][-0.858243167,-0.0110094026,-0.513125122][0.535724998,0.367838025,0]
[-0.207841501,-0.0875129998,-0.935500026][0.0128268972,-0.999917746,0][0.59017998,0.259494007,0]
[-0.210017994,0.0821529999,-0.935500026][-0.0127960956,0.997524619,-0.0691442788][0.559055984,0.370687962,0]
[-0.148023501,0.0829479992,-0.935500026][-0.858243167,-0.0110094026,-0.513125122][0.535724998,0.367838025,0]
[0.207841501,0.0875129998,-0.935500026][-0.0128268972,0.999917746,0][0.401800007,0.351472974,0]
[0.457378507,0.0472720489,-0.761690021][0.572332084,0.00734179094,-0.819989145][0.316067994,0.311558962,0]
[0.210017994,-0.0821529999,-0.935500026][0.0127960956,-0.997524619,-0.0691442788][0.432924002,0.240280032,0]
[0.457378507,0.0472720489,-0.761690021][0.572332084,0.00734179094,-0.819989145][0.316067994,0.311558962,0]
[0.458440512,-0.0355248488,-0.761690021][0.572330952,0.00734293927,-0.81998986][0.331256002,0.257295966,0]
[0.210017994,-0.0821529999,-0.935500026][0.0127960956,-0.997524619,-0.0691442788][0.432924002,0.240280032,0]
[0.210017994,-0.0821529999,-0.935500026][0.0127960956,-0.997524619,-0.0691442788][0.995773971,0.799874008,0]
[0.458440512,-0.0355248488,-0.761690021][0.572330952,0.00734293927,-0.81998986][0.944899976,0.922380984,0]
[0.210017994,-0.0821529999,-0.772894979][0.22804597,0.17118299,0.958483875][0.948179007,0.799874008,0]
[0.458440512,-0.0355248488,-0.761690021][0.572330952,0.00734293927,-0.81998986][0.944899976,0.922380984,0]
[0.458440512,-0.0355248488,-0.680710018][0.184475049,-0.98283726,0][0.921195984,0.922380984,0]
[0.210017994,-0.0821529999,-0.772894979][0.22804597,0.17118299,0.958483875][0.948179007,0.799874008,0]
[0.210017994,-0.0821529999,-0.772894979][0.22804597,0.17118299,0.958483875][0.571520984,0.0327500105,0]
[0.458440512,-0.0355248488,-0.680710018][0.184475049,-0.98283726,0][0.673188984,0.0497670174,0]
[0.207841501,0.0875129998,-0.772894979][0.232362002,-0.165277004,0.958483994][0.60264498,0.143944025,0]
[0.458440512,-0.0355248488,-0.680710018][0.184475049,-0.98283726,0][0.673188984,0.0497670174,0]
[0.457378507,0.0472720489,-0.680710018][-0.347162217,-0.00445405301,0.937794566][0.688377023,0.104029,0]
[0.207841501,0.0875129998,-0.772894979][0.232362002,-0.165277004,0.958483994][0.60264498,0.143944025,0]
[0.207841501,0.0875129998,-0.772894979][0.232362002,-0.165277004,0.958483994][0.948179007,0.570897996,0]
[0.457378507,0.0472720489,-0.680710018][-0.347162217,-0.00445405301,0.937794566][0.921195984,0.420949996,0]
[0.207841501,0.0875129998,-0.935500026][-0.0128268972,0.999917746,0][0.995774984,0.570897996,0]
[0.457378507,0.0472720489,-0.680710018][-0.347162217,-0.00445405301,0.937794566][0.921195984,0.420949996,0]
[0.457378507,0.0472720489,-0.761690021][0.572332084,0.00734179094,-0.819989145][0.944899976,0.420949996,0]
[0.207841501,0.0875129998,-0.935500026][-0.0128268972,0.999917746,0][0.995774984,0.570897996,0]
[-0.207841501,-0.0875129998,-0.935500026][0.0128268972,-0.999917746,0][0.59017998,0.259494007,0]
[-0.457378507,-0.0472720489,-0.761690021][-0.572332084,-0.00734179094,-0.819989145][0.675912023,0.299409032,0]
[-0.210017994,0.0821529999,-0.935500026][-0.0127960956,0.997524619,-0.0691442788][0.559055984,0.370687962,0]
[-0.457378507,-0.0472720489,-0.761690021][-0.572332084,-0.00734179094,-0.819989145][0.675912023,0.299409032,0]
[-0.458440512,0.0355248488,-0.761690021][-0.572330952,-0.00734293927,-0.81998986][0.660723984,0.353671014,0]
[-0.210017994,0.0821529999,-0.935500026][-0.0127960956,0.997524619,-0.0691442788][0.559055984,0.370687962,0]
[-0.210017994,0.0821529999,-0.935500026][-0.0127960956,0.997524619,-0.0691442788][0.995774984,0.799526989,0]
[-0.458440512,0.0355248488,-0.761690021][-0.572330952,-0.00734293927,-0.81998986][0.944899976,0.922034025,0]
[-0.210017994,0.0821529999,-0.772894979][-0.22804597,-0.17118299,0.958483875][0.948179007,0.799526989,0]
[-0.458440512,0.0355248488,-0.761690021][-0.572330952,-0.00734293927,-0.81998986][0.944899976,0.922034025,0]
[-0.458440512,0.0355248488,-0.680710018][-0.184475049,0.98283726,0][0.921195984,0.922034025,0]
[-0.210017994,0.0821529999,-0.772894979][-0.22804597,-0.17118299,0.958483875][0.948179007,0.799526989,0]
[-0.210017994,0.0821529999,-0.772894979][-0.22804597,-0.17118299,0.958483875][0.458326995,0.150382996,0]
[-0.458440512,0.0355248488,-0.680710018][-0.184475049,0.98283726,0][0.356658995,0.133365989,0]
[-0.207841501,-0.0875129998,-0.772894979][-0.232362002,0.165277004,0.958483994][0.427203,0.0391889811,0]
[-0.458440512,0.0355248488,-0.680710018][-0.184475049,0.98283726,0][0.356658995,0.133365989,0]
[-0.457378507,-0.0472720489,-0.680710018][0.347162217,0.00445405301,0.937794566][0.341470987,0.0791040063,0]
[-0.207841501,-0.0875129998,-0.772894979][-0.232362002,0.165277004,0.958483994][0.427203,0.0391889811,0]
[-0.207841501,-0.0875129998,-0.772894979][-0.232362002,0.165277004,0.958483994][0.948179007,0.571245015,0]
[-0.457378507,-0.0472720489,-0.680710018][0.347162217,0.00445405301,0.937794566][0.921195984,0.421298027,0]
[-0.207841501,-0.0875129998,-0.935500026][0.0128268972,-0.999917746,0][0.995773971,0.571245015,0]
[-0.457378507,-0.0472720489,-0.680710018][0.347162217,0.00445405301,0.937794566][0.921195984,0.421298027,0]
[-0.457378507,-0.0472720489,-0.761690021][-0.572332084,-0.00734179094,-0.819989145][0.944899976,0.421298027,0]
[-0.207841501,-0.0875129998,-0.935500026][0.0128268972,-0.999917746,0][0.995773971,0.571245015,0]
[0.457378507,0.0472720489,-0.680710018][-0.347162217,-0.00445405301,0.937794566][0.921195984,0.420949996,0]
[0.574630022,0.0282392502,-0.568904996][0.160224929,0.987080514,0][0.888469994,0.350453973,0]
[0.457378507,0.0472720489,-0.761690021][0.572332084,0.00734179094,-0.819989145][0.944899976,0.420949996,0]
[0.574630022,0.0282392502,-0.568904996][0.160224929,0.987080514,0][0.888469994,0.350453973,0]
[0.574630022,0.0282392502,-0.617489994][0.160224929,0.987080514,0][0.90269202,0.350453973,0]
[0.457378507,0.0472720489,-0.761690021][0.572332084,0.00734179094,-0.819989145][0.944899976,0.420949996,0]
[0.457378507,0.0472720489,-0.761690021][0.572332084,0.00734179094,-0.819989145][0.942584991,0.0319049954,0]
[0.574630022,0.0282392502,-0.617489994][0.160224929,0.987080514,0][0.991599977,0.229584992,0]
[0.458440512,-0.0355248488,-0.761690021][0.572330952,0.00734293927,-0.81998986][0.856257975,0.0319049954,0]
[0.574630022,0.0282392502,-0.617489994][0.160224929,0.987080514,0][0.991599977,0.229584992,0]
[0.575164974,-0.0134894997,-0.617489994][0.776486516,0.0099266246,-0.630055666][0.948090971,0.229584992,0]
[0.458440512,-0.0355248488,-0.761690021][0.572330952,0.00734293927,-0.81998986][0.856257975,0.0319049954,0]
[0.458440512,-0.0355248488,-0.761690021][0.572330952,0.00734293927,-0.81998986][0.944899976,0.922380984,0]
[0.575164974,-0.0134894997,-0.617489994][0.776486516,0.0099266246,-0.630055666][0.90269202,0.979903996,0]
[0.458440512,-0.0355248488,-0.680710018][0.184475049,-0.98283726,0][0.921195984,0.922380984,0]
[0.575164974,-0.0134894997,-0.617489994][0.776486516,0.0099266246,-0.630055666][0.90269202,0.979903996,0]
[0.575164974,-0.0134894997,-0.568904996][0.185503915,-0.982643545,0][0.888471007,0.979903996,0]
[0.458440512,-0.0355248488,-0.680710018][0.184475049,-0.98283726,0][0.921195984,0.922380984,0]
[0.458440512,-0.0355248488,-0.680710018][0.184475049,-0.98283726,0][0.673188984,0.0497670174,0]
[0.575164974,-0.0134894997,-0.568904996][0.185503915,-0.982643545,0][0.720982015,0.0578449965,0]
[0.457378507,0.0472720489,-0.680710018][-0.347162217,-0.00445405301,0.937794566][0.688377023,0.104029,0]
[0.575164974,-0.0134894997,-0.568904996][0.185503915,-0.982643545,0][0.720982015,0.0578449965,0]
[0.574630022,0.0282392502,-0.568904996][0.160224929,0.987080514,0][0.728637993,0.0851929784,0]
[0.457378507,0.0472720489,-0.680710018][-0.347162217,-0.00445405301,0.937794566][0.688377023,0.104029,0]
[0.574630022,0.0282392502,-0.568904996][0.160224929,0.987080514,0][0.992612004,0.294571042,0]
[0.575164974,-0.0134894997,-0.568904996][0.185503915,-0.982643545,0][0.949102998,0.294571042,0]
[0.574630022,0.0282392502,-0.617489994][0.160224929,0.987080514,0][0.992612004,0.227967024,0]
[0.575164974,-0.0134894997,-0.568904996][0.185503915,-0.982643545,0][0.949102998,0.294571042,0]
[0.575164974,-0.0134894997,-0.617489994][0.776486516,0.0099266246,-0.630055666][0.949102998,0.227967024,0]
[0.574630022,0.0282392502,-0.617489994][0.160224929,0.987080514,0][0.992612004,0.227967024,0]
[-0.457378507,-0.0472720489,-0.680710018][0.347162217,0.00445405301,0.937794566][0.921195984,0.421298027,0]
[-0.574630022,-0.0282392502,-0.568904996][-0.160224929,-0.987080514,0][0.888471007,0.350800991,0]
[-0.457378507,-0.0472720489,-0.761690021][-0.572332084,-0.00734179094,-0.819989145][0.944899976,0.421298027,0]
[-0.574630022,-0.0282392502,-0.568904996][-0.160224929,-0.987080514,0][0.888471007,0.350800991,0]
[-0.574630022,-0.0282392502,-0.617489994][-0.160224929,-0.987080514,0][0.90269202,0.350800991,0]
[-0.457378507,-0.0472720489,-0.761690021][-0.572332084,-0.00734179094,-0.819989145][0.944899976,0.421298027,0]
[-0.457378507,-0.0472720489,-0.761690021][-0.572332084,-0.00734179094,-0.819989145][0.942300022,0.0291990042,0]
[-0.574630022,-0.0282392502,-0.617489994][-0.160224929,-0.987080514,0][0.991315007,0.226879001,0]
[-0.458440512,0.0355248488,-0.761690021][-0.572330952,-0.00734293927,-0.81998986][0.855973005,0.0291990042,0]
[-0.574630022,-0.0282392502,-0.617489994][-0.160224929,-0.987080514,0][0.991315007,0.226879001,0]
[-0.575164974,0.0134894997,-0.617489994][-0.776486516,-0.0099266246,-0.630055666][0.947806001,0.226879001,0]
[-0.458440512,0.0355248488,-0.761690021][-0.572330952,-0.00734293927,-0.81998986][0.855973005,0.0291990042,0]
[-0.458440512,0.0355248488,-0.761690021][-0.572330952,-0.00734293927,-0.81998986][0.944899976,0.922034025,0]
[-0.575164974,0.0134894997,-0.617489994][-0.776486516,-0.0099266246,-0.630055666][0.90269202,0.979556978,0]
[-0.458440512,0.0355248488,-0.680710018][-0.184475049,0.98283726,0][0.921195984,0.922034025,0]
[-0.575164974,0.0134894997,-0.617489994][-0.776486516,-0.0099266246,-0.630055666][0.90269202,0.979556978,0]
[-0.575164974,0.0134894997,-0.568904996][-0.185503915,0.982643545,0][0.888469994,0.979556978,0]
[-0.458440512,0.0355248488,-0.680710018][-0.184475049,0.98283726,0][0.921195984,0.922034025,0]
[-0.458440512,0.0355248488,-0.680710018][-0.184475049,0.98283726,0][0.356658995,0.133365989,0]
[-0.575164974,0.0134894997,-0.568904996][-0.185503915,0.982643545,0][0.308865011,0.12528801,0]
[-0.457378507,-0.0472720489,-0.680710018][0.347162217,0.00445405301,0.937794566][0.341470987,0.0791040063,0]
[-0.575164974,0.0134894997,-0.568904996][-0.185503915,0.982643545,0][0.308865011,0.12528801,0]
[-0.574630022,-0.0282392502,-0.568904996][-0.160224929,-0.987080514,0][0.301209986,0.0979409814,0]
[-0.457378507,-0.0472720489,-0.680710018][0.347162217,0.00445405301,0.937794566][0.341470987,0.0791040063,0]
[-0.574630022,-0.0282392502,-0.568904996][-0.160224929,-0.987080514,0][0.991315007,0.295100987,0]
[-0.575164974,0.0134894997,-0.568904996][-0.185503915,0.982643545,0][0.947806001,0.295100987,0]
[-0.574630022,-0.0282392502,-0.617489994][-0.160224929,-0.987080514,0][0.991315007,0.228497028,0]
[-0.575164974,0.0134894997,-0.568904996][-0.185503915,0.982643545,0][0.947806001,0.295100987,0]
[-0.575164974,0.0134894997,-0.617489994][-0.776486516,-0.0099266246,-0.630055666][0.947806001,0.228497028,0]
[-0.574630022,-0.0282392502,-0.617489994][-0.160224929,-0.987080514,0][0.991315007,0.228497028,0]
[0.146935001,0.00188469503,-0.649394989][0.591454923,-0.735343933,0.330832958][0.852711022,0.611832023,0]
[0.146935001,0.00188469503,-0.772894979][0.22804597,0.17118299,0.958483875][0.885805011,0.611832023,0]
[0.0705789998,0.0444801003,-0.613884985][-0.0117146,0.913430989,0.406825006][0.843195975,0.666842997,0]
[0.146935001,0.00188469503,-0.772894979][0.22804597,0.17118299,0.958483875][0.885805011,0.611832023,0]
[0.0698734969,0.099475503,-0.737384975][0.232362002,-0.165277004,0.958483994][0.876290023,0.684144974,0]
[0.0705789998,0.0444801003,-0.613884985][-0.0117146,0.913430989,0.406825006][0.843195975,0.666842997,0]
[-0.146935001,-0.00188469503,-0.649394989][-0.591454923,0.735343933,0.330832958][0.852711022,0.612178028,0]
[-0.146935001,-0.00188469503,-0.772894979][-0.232362002,0.165277004,0.958483994][0.885805011,0.612178028,0]
[-0.0705789998,-0.0444801003,-0.613884985][0.0117146,-0.913430989,0.406825006][0.843196988,0.667187989,0]
[-0.146935001,-0.00188469503,-0.772894979][-0.232362002,0.165277004,0.958483994][0.885805011,0.612178028,0]
[-0.0698734969,-0.099475503,-0.737384975][-0.232362002,0.165277004,0.958483994][0.87628901,0.684490979,0]
[-0.0705789998,-0.0444801003,-0.613884985][0.0117146,-0.913430989,0.406825006][0.843196988,0.667187989,0]
[0.000558655011,-0.0435677506,-0.613884985][0.0117146,-0.913430989,0.406825006][0.843196988,0.705953002,0]
[0.00126429496,-0.0985630006,-0.737384975][0.0120664956,-0.941131651,0.337824881][0.87628901,0.723254979,0]
[0.0716969967,-0.0426552482,-0.613884985][0.591454923,-0.735343933,0.330832958][0.843196988,0.744717002,0]
[0.00126429496,-0.0985630006,-0.737384975][0.0120664956,-0.941131651,0.337824881][0.87628901,0.723254979,0]
[0.0724020004,-0.0976509973,-0.737384975][0.22804597,0.17118299,0.958483875][0.87628901,0.762019992,0]
[0.0716969967,-0.0426552482,-0.613884985][0.591454923,-0.735343933,0.330832958][0.843196988,0.744717002,0]
[0.0021764501,-0.169666007,-0.935500026][0.438655138,-0.737756252,-0.513125181][0.995773971,0.712357998,0]
[0.00126429496,-0.0985630006,-0.737384975][0.0120664956,-0.941131651,0.337824881][0.937785029,0.689897001,0]
[-0.145846993,-0.0867175013,-0.935500026][-0.419588059,-0.748766065,-0.513123035][0.995773971,0.605165005,0]
[0.00126429496,-0.0985630006,-0.737384975][0.0120664956,-0.941131651,0.337824881][0.937785029,0.689897001,0]
[-0.0698734969,-0.099475503,-0.737384975][-0.232362002,0.165277004,0.958483994][0.937785029,0.650974989,0]
[-0.145846993,-0.0867175013,-0.935500026][-0.419588059,-0.748766065,-0.513123035][0.995773971,0.605165005,0]
[-0.000558655011,0.0435677506,-0.613884985][-0.0117146,0.913430989,0.406825006][0.843195975,0.705606997,0]
[-0.00126429496,0.0985630006,-0.737384975][-0.0120664956,0.941131651,0.337824881][0.876290023,0.722908974,0]
[-0.0716969967,0.0426552482,-0.613884985][-0.591454923,0.735343933,0.330832958][0.843195975,0.74437201,0]
[-0.00126429496,0.0985630006,-0.737384975][-0.0120664956,0.941131651,0.337824881][0.876290023,0.722908974,0]
[-0.0724020004,0.0976509973,-0.737384975][-0.22804597,-0.17118299,0.958483875][0.876290023,0.761673987,0]
[-0.0716969967,0.0426552482,-0.613884985][-0.591454923,0.735343933,0.330832958][0.843195975,0.74437201,0]
[-0.0021764501,0.169666007,-0.935500026][-0.438655138,0.737756252,-0.513125181][0.995774984,0.71201098,0]
[-0.00126429496,0.0985630006,-0.737384975][-0.0120664956,0.941131651,0.337824881][0.937785983,0.689549983,0]
[0.145846993,0.0867175013,-0.935500026][0.419588059,0.748766065,-0.513123035][0.995774984,0.604817986,0]
[-0.00126429496,0.0985630006,-0.737384975][-0.0120664956,0.941131651,0.337824881][0.937785983,0.689549983,0]
[0.0698734969,0.099475503,-0.737384975][0.232362002,-0.165277004,0.958483994][0.937785983,0.650627971,0]
[0.145846993,0.0867175013,-0.935500026][0.419588059,0.748766065,-0.513123035][0.995774984,0.604817986,0]
[0.114686497,0.00147119001,1.94081998][0.209416106,0.977496505,0.0254072137][0.158636004,0.629405022,0]
[0.146935001,0.00188469503,1.65910494][0.209416106,0.977496505,0.0254072137][0.234125003,0.611832023,0]
[0.0181057509,0.0211063493,1.98144996][0.209416106,0.977496505,0.0254072137][0.147749007,0.688454986,0]
[0.146935001,0.00188469503,1.65910494][0.209416106,0.977496505,0.0254072137][0.234125003,0.611832023,0]
[0.0352897495,0.0222401507,1.57137501][0.171804994,0.985081017,0.00992301013][0.257631987,0.679372013,0]
[0.0181057509,0.0211063493,1.98144996][0.209416106,0.977496505,0.0254072137][0.147749007,0.688454986,0]
[-0.114686497,-0.00147119001,1.94081998][-0.209416106,-0.977496505,0.0254072137][0.158636004,0.629751027,0]
[-0.146935001,-0.00188469503,1.65910494][-0.209416106,-0.977496505,0.0254072137][0.234124005,0.612178028,0]
[-0.0181057509,-0.0211063493,1.98144996][-0.209416106,-0.977496505,0.0254072137][0.147749007,0.688799977,0]
[-0.146935001,-0.00188469503,1.65910494][-0.209416106,-0.977496505,0.0254072137][0.234124005,0.612178028,0]
[-0.0352897495,-0.0222401507,1.57137501][-0.171804994,-0.985081017,0.00992301013][0.257631987,0.679717004,0]
[-0.0181057509,-0.0211063493,1.98144996][-0.209416106,-0.977496505,0.0254072137][0.147749007,0.688799977,0]
[0.124894999,0.00160200999,0.0703549981][0.493555129,0.869577169,0.0154552041][0.659847021,0.623842001,0]
[0.146935001,0.00188469503,-0.649394989][0.591454923,-0.735343933,0.330832958][0.852711022,0.611832023,0]
[0.0599920005,0.0378083512,0.105865002][0.493555129,0.869577169,0.0154552041][0.650331974,0.670602024,0]
[0.146935001,0.00188469503,-0.649394989][0.591454923,-0.735343933,0.330832958][0.852711022,0.611832023,0]
[0.0705789998,0.0444801003,-0.613884985][-0.0117146,0.913430989,0.406825006][0.843195975,0.666842997,0]
[0.0599920005,0.0378083512,0.105865002][0.493555129,0.869577169,0.0154552041][0.650331974,0.670602024,0]
[0.0609420016,-0.0362566486,0.105865002][0.51563704,-0.856670141,0.0153206019][0.645686984,0.548225999,0]
[0.0716969967,-0.0426552482,-0.613884985][0.591454923,-0.735343933,0.330832958][0.837734997,0.548000991,0]
[0.124894999,0.00160200999,0.0703549981][0.493555129,0.869577169,0.0154552041][0.655164003,0.592788994,0]
[0.0716969967,-0.0426552482,-0.613884985][0.591454923,-0.735343933,0.330832958][0.837734997,0.548000991,0]
[0.146935001,0.00188469503,-0.649394989][0.591454923,-0.735343933,0.330832958][0.847211003,0.600428998,0]
[0.124894999,0.00160200999,0.0703549981][0.493555129,0.869577169,0.0154552041][0.655164003,0.592788994,0]
[0.000475089997,-0.0370328501,0.107864998][0.0131346975,-0.999872744,0.00905463845][0.649794996,0.703896999,0]
[0.000558655011,-0.0435677506,-0.613884985][0.0117146,-0.913430989,0.406825006][0.843196988,0.705953002,0]
[0.0609420016,-0.0362566486,0.105865002][0.51563704,-0.856670141,0.0153206019][0.650331974,0.736846983,0]
[0.000558655011,-0.0435677506,-0.613884985][0.0117146,-0.913430989,0.406825006][0.843196988,0.705953002,0]
[0.0716969967,-0.0426552482,-0.613884985][0.591454923,-0.735343933,0.330832958][0.843196988,0.744717002,0]
[0.0609420016,-0.0362566486,0.105865002][0.51563704,-0.856670141,0.0153206019][0.650331974,0.736846983,0]
[-0.0599920005,-0.0378083512,0.105865002][0.0125235049,-0.999880373,0.00908418279][0.650331974,0.670947015,0]
[-0.0705789998,-0.0444801003,-0.613884985][0.0117146,-0.913430989,0.406825006][0.843196988,0.667187989,0]
[0.000475089997,-0.0370328501,0.107864998][0.0131346975,-0.999872744,0.00905463845][0.649794996,0.703896999,0]
[-0.0705789998,-0.0444801003,-0.613884985][0.0117146,-0.913430989,0.406825006][0.843196988,0.667187989,0]
[0.000558655011,-0.0435677506,-0.613884985][0.0117146,-0.913430989,0.406825006][0.843196988,0.705953002,0]
[0.000475089997,-0.0370328501,0.107864998][0.0131346975,-0.999872744,0.00905463845][0.649794996,0.703896999,0]
[-0.124894999,-0.00160200999,0.0703549981][-0.493555129,-0.869577169,0.0154552041][0.659847021,0.624189019,0]
[-0.146935001,-0.00188469503,-0.649394989][-0.591454923,0.735343933,0.330832958][0.852711022,0.612178028,0]
[-0.0599920005,-0.0378083512,0.105865002][0.0125235049,-0.999880373,0.00908418279][0.650331974,0.670947015,0]
[-0.146935001,-0.00188469503,-0.649394989][-0.591454923,0.735343933,0.330832958][0.852711022,0.612178028,0]
[-0.0705789998,-0.0444801003,-0.613884985][0.0117146,-0.913430989,0.406825006][0.843196988,0.667187989,0]
[-0.0599920005,-0.0378083512,0.105865002][0.0125235049,-0.999880373,0.00908418279][0.650331974,0.670947015,0]
[-0.0609420016,0.0362566486,0.105865002][-0.51563704,0.856670141,0.0153206019][0.643778026,0.54875201,0]
[-0.0716969967,0.0426552482,-0.613884985][-0.591454923,0.735343933,0.330832958][0.835826993,0.548527002,0]
[-0.124894999,-0.00160200999,0.0703549981][-0.493555129,-0.869577169,0.0154552041][0.653253019,0.593315005,0]
[-0.0716969967,0.0426552482,-0.613884985][-0.591454923,0.735343933,0.330832958][0.835826993,0.548527002,0]
[-0.146935001,-0.00188469503,-0.649394989][-0.591454923,0.735343933,0.330832958][0.845304012,0.600955009,0]
[-0.124894999,-0.00160200999,0.0703549981][-0.493555129,-0.869577169,0.0154552041][0.653253019,0.593315005,0]
[-0.000475089997,0.0370328501,0.107864998][-0.0131346975,0.999872744,0.00905463845][0.649794996,0.703550994,0]
[-0.000558655011,0.0435677506,-0.613884985][-0.0117146,0.913430989,0.406825006][0.843195975,0.705606997,0]
[-0.0609420016,0.0362566486,0.105865002][-0.51563704,0.856670141,0.0153206019][0.650331974,0.736500978,0]
[-0.000558655011,0.0435677506,-0.613884985][-0.0117146,0.913430989,0.406825006][0.843195975,0.705606997,0]
[-0.0716969967,0.0426552482,-0.613884985][-0.591454923,0.735343933,0.330832958][0.843195975,0.74437201,0]
[-0.0609420016,0.0362566486,0.105865002][-0.51563704,0.856670141,0.0153206019][0.650331974,0.736500978,0]
[0.0599920005,0.0378083512,0.105865002][0.493555129,0.869577169,0.0154552041][0.650331974,0.670602024,0]
[0.0705789998,0.0444801003,-0.613884985][-0.0117146,0.913430989,0.406825006][0.843195975,0.666842997,0]
[-0.000475089997,0.0370328501,0.107864998][-0.0131346975,0.999872744,0.00905463845][0.649794996,0.703550994,0]
[0.0705789998,0.0444801003,-0.613884985][-0.0117146,0.913430989,0.406825006][0.843195975,0.666842997,0]
[-0.000558655011,0.0435677506,-0.613884985][-0.0117146,0.913430989,0.406825006][0.843195975,0.705606997,0]
[-0.000475089997,0.0370328501,0.107864998][-0.0131346975,0.999872744,0.00905463845][0.649794996,0.703550994,0]
[0.146935001,0.00188469503,0.716229975][0.481134057,0.876486123,-0.0168021023][0.486777991,0.611832023,0]
[0.124894999,0.00160200999,0.0703549981][0.493555129,0.869577169,0.0154552041][0.659847021,0.623842001,0]
[0.0705789998,0.0444801003,0.751739979][0.481134057,0.876486123,-0.0168021023][0.477263004,0.666842997,0]
[0.124894999,0.00160200999,0.0703549981][0.493555129,0.869577169,0.0154552041][0.659847021,0.623842001,0]
[0.0599920005,0.0378083512,0.105865002][0.493555129,0.869577169,0.0154552041][0.650331974,0.670602024,0]
[0.0705789998,0.0444801003,0.751739979][0.481134057,0.876486123,-0.0168021023][0.477263004,0.666842997,0]
[0.0716969967,-0.0426552482,0.751739979][0.503409803,-0.863881707,-0.0169407949][0.473351002,0.548000991,0]
[0.0609420016,-0.0362566486,0.105865002][0.51563704,-0.856670141,0.0153206019][0.645686984,0.548225999,0]
[0.146935001,0.00188469503,0.716229975][0.481134057,0.876486123,-0.0168021023][0.482825011,0.600428998,0]
[0.0609420016,-0.0362566486,0.105865002][0.51563704,-0.856670141,0.0153206019][0.645686984,0.548225999,0]
[0.124894999,0.00160200999,0.0703549981][0.493555129,0.869577169,0.0154552041][0.655164003,0.592788994,0]
[0.146935001,0.00188469503,0.716229975][0.481134057,0.876486123,-0.0168021023][0.482825011,0.600428998,0]
[0.000558655011,-0.0435677506,0.75474][0.0123997014,-0.999872148,-0.0101026008][0.476458997,0.705953002,0]
[0.000475089997,-0.0370328501,0.107864998][0.0131346975,-0.999872744,0.00905463845][0.649794996,0.703896999,0]
[0.0716969967,-0.0426552482,0.751739979][0.503409803,-0.863881707,-0.0169407949][0.477263004,0.744717002,0]
[0.000475089997,-0.0370328501,0.107864998][0.0131346975,-0.999872744,0.00905463845][0.649794996,0.703896999,0]
[0.0609420016,-0.0362566486,0.105865002][0.51563704,-0.856670141,0.0153206019][0.650331974,0.736846983,0]
[0.0716969967,-0.0426552482,0.751739979][0.503409803,-0.863881707,-0.0169407949][0.477263004,0.744717002,0]
[-0.0705789998,-0.0444801003,0.751739979][0.0132495016,-0.999861121,-0.010111101][0.477263004,0.667187989,0]
[-0.0599920005,-0.0378083512,0.105865002][0.0125235049,-0.999880373,0.00908418279][0.650331974,0.670947015,0]
[0.000558655011,-0.0435677506,0.75474][0.0123997014,-0.999872148,-0.0101026008][0.476458997,0.705953002,0]
[-0.0599920005,-0.0378083512,0.105865002][0.0125235049,-0.999880373,0.00908418279][0.650331974,0.670947015,0]
[0.000475089997,-0.0370328501,0.107864998][0.0131346975,-0.999872744,0.00905463845][0.649794996,0.703896999,0]
[0.000558655011,-0.0435677506,0.75474][0.0123997014,-0.999872148,-0.0101026008][0.476458997,0.705953002,0]
[-0.146935001,-0.00188469503,0.716229975][-0.481134057,-0.876486123,-0.0168021023][0.486777991,0.612178028,0]
[-0.124894999,-0.00160200999,0.0703549981][-0.493555129,-0.869577169,0.0154552041][0.659847021,0.624189019,0]
[-0.0705789998,-0.0444801003,0.751739979][0.0132495016,-0.999861121,-0.010111101][0.477263004,0.667187989,0]
[-0.124894999,-0.00160200999,0.0703549981][-0.493555129,-0.869577169,0.0154552041][0.659847021,0.624189019,0]
[-0.0599920005,-0.0378083512,0.105865002][0.0125235049,-0.999880373,0.00908418279][0.650331974,0.670947015,0]
[-0.0705789998,-0.0444801003,0.751739979][0.0132495016,-0.999861121,-0.010111101][0.477263004,0.667187989,0]
[-0.0716969967,0.0426552482,0.751739979][-0.503409803,0.863881707,-0.0169407949][0.471442014,0.548527002,0]
[-0.0609420016,0.0362566486,0.105865002][-0.51563704,0.856670141,0.0153206019][0.643778026,0.54875201,0]
[-0.146935001,-0.00188469503,0.716229975][-0.481134057,-0.876486123,-0.0168021023][0.480917007,0.600955009,0]
[-0.0609420016,0.0362566486,0.105865002][-0.51563704,0.856670141,0.0153206019][0.643778026,0.54875201,0]
[-0.124894999,-0.00160200999,0.0703549981][-0.493555129,-0.869577169,0.0154552041][0.653253019,0.593315005,0]
[-0.146935001,-0.00188469503,0.716229975][-0.481134057,-0.876486123,-0.0168021023][0.480917007,0.600955009,0]
[-0.000558655011,0.0435677506,0.75474][-0.0123997014,0.999872148,-0.0101026008][0.476458997,0.705606997,0]
[-0.000475089997,0.0370328501,0.107864998][-0.0131346975,0.999872744,0.00905463845][0.649794996,0.703550994,0]
[-0.0716969967,0.0426552482,0.751739979][-0.503409803,0.863881707,-0.0169407949][0.477263004,0.74437201,0]
[-0.000475089997,0.0370328501,0.107864998][-0.0131346975,0.999872744,0.00905463845][0.649794996,0.703550994,0]
[-0.0609420016,0.0362566486,0.105865002][-0.51563704,0.856670141,0.0153206019][0.650331974,0.736500978,0]
[-0.0716969967,0.0426552482,0.751739979][-0.503409803,0.863881707,-0.0169407949][0.477263004,0.74437201,0]
[0.0705789998,0.0444801003,0.751739979][0.481134057,0.876486123,-0.0168021023][0.477263004,0.666842997,0]
[0.0599920005,0.0378083512,0.105865002][0.493555129,0.869577169,0.0154552041][0.650331974,0.670602024,0]
[-0.000558655011,0.0435677506,0.75474][-0.0123997014,0.999872148,-0.0101026008][0.476458997,0.705606997,0]
[0.0599920005,0.0378083512,0.105865002][0.493555129,0.869577169,0.0154552041][0.650331974,0.670602024,0]
[-0.000475089997,0.0370328501,0.107864998][-0.0131346975,0.999872744,0.00905463845][0.649794996,0.703550994,0]
[-0.000558655011,0.0435677506,0.75474][-0.0123997014,0.999872148,-0.0101026008][0.476458997,0.705606997,0]
[0.146935001,0.00188469503,1.65910494][0.209416106,0.977496505,0.0254072137][0.234125003,0.611832023,0]
[0.146935001,0.00188469503,0.716229975][0.481134057,0.876486123,-0.0168021023][0.486777991,0.611832023,0]
[0.0352897495,0.0222401507,1.57137501][0.171804994,0.985081017,0.00992301013][0.257631987,0.679372013,0]
[0.146935001,0.00188469503,0.716229975][0.481134057,0.876486123,-0.0168021023][0.486777991,0.611832023,0]
[0.0705789998,0.0444801003,0.751739979][0.481134057,0.876486123,-0.0168021023][0.477263004,0.666842997,0]
[0.0352897495,0.0222401507,1.57137501][0.171804994,0.985081017,0.00992301013][0.257631987,0.679372013,0]
[0.0358484015,-0.0213276502,1.57137501][0.179069951,-0.983268738,0.0334174931][0.254649997,0.548750997,0]
[0.0716969967,-0.0426552482,0.751739979][0.503409803,-0.863881707,-0.0169407949][0.473351002,0.548000991,0]
[0.146935001,0.00188469503,1.65910494][0.209416106,0.977496505,0.0254072137][0.231242001,0.600428998,0]
[0.0716969967,-0.0426552482,0.751739979][0.503409803,-0.863881707,-0.0169407949][0.473351002,0.548000991,0]
[0.146935001,0.00188469503,0.716229975][0.481134057,0.876486123,-0.0168021023][0.482825011,0.600428998,0]
[0.146935001,0.00188469503,1.65910494][0.209416106,0.977496505,0.0254072137][0.231242001,0.600428998,0]
[0.0716969967,-0.0426552482,0.751739979][0.503409803,-0.863881707,-0.0169407949][0.477263004,0.744717002,0]
[0.0358484015,-0.0213276502,1.57137501][0.179069951,-0.983268738,0.0334174931][0.257631987,0.718481004,0]
[0.000558655011,-0.0435677506,0.75474][0.0123997014,-0.999872148,-0.0101026008][0.476458997,0.705953002,0]
[0.000558655011,-0.0435677506,0.75474][0.0123997014,-0.999872148,-0.0101026008][0.476458997,0.705953002,0]
[0.0358484015,-0.0213276502,1.57137501][0.179069951,-0.983268738,0.0334174931][0.257631987,0.718481004,0]
[-0.0352897495,-0.0222401507,1.57137501][-0.171804994,-0.985081017,0.00992301013][0.257631987,0.679717004,0]
[-0.0705789998,-0.0444801003,0.751739979][0.0132495016,-0.999861121,-0.010111101][0.477263004,0.667187989,0]
[0.000558655011,-0.0435677506,0.75474][0.0123997014,-0.999872148,-0.0101026008][0.476458997,0.705953002,0]
[-0.0352897495,-0.0222401507,1.57137501][-0.171804994,-0.985081017,0.00992301013][0.257631987,0.679717004,0]
[-0.146935001,-0.00188469503,1.65910494][-0.209416106,-0.977496505,0.0254072137][0.234124005,0.612178028,0]
[-0.146935001,-0.00188469503,0.716229975][-0.481134057,-0.876486123,-0.0168021023][0.486777991,0.612178028,0]
[-0.0352897495,-0.0222401507,1.57137501][-0.171804994,-0.985081017,0.00992301013][0.257631987,0.679717004,0]
[-0.146935001,-0.00188469503,0.716229975][-0.481134057,-0.876486123,-0.0168021023][0.486777991,0.612178028,0]
[-0.0705789998,-0.0444801003,0.751739979][0.0132495016,-0.999861121,-0.010111101][0.477263004,0.667187989,0]
[-0.0352897495,-0.0222401507,1.57137501][-0.171804994,-0.985081017,0.00992301013][0.257631987,0.679717004,0]
[-0.0358484015,0.0213276502,1.57137501][-0.179069951,0.983268738,0.0334174931][0.252741009,0.549277008,0]
[-0.0716969967,0.0426552482,0.751739979][-0.503409803,0.863881707,-0.0169407949][0.471442014,0.548527002,0]
[-0.146935001,-0.00188469503,1.65910494][-0.209416106,-0.977496505,0.0254072137][0.229332,0.600955009,0]
[-0.0716969967,0.0426552482,0.751739979][-0.503409803,0.863881707,-0.0169407949][0.471442014,0.548527002,0]
[-0.146935001,-0.00188469503,0.716229975][-0.481134057,-0.876486123,-0.0168021023][0.480917007,0.600955009,0]
[-0.146935001,-0.00188469503,1.65910494][-0.209416106,-0.977496505,0.0254072137][0.229332,0.600955009,0]
[-0.0716969967,0.0426552482,0.751739979][-0.503409803,0.863881707,-0.0169407949][0.477263004,0.74437201,0]
[-0.0358484015,0.0213276502,1.57137501][-0.179069951,0.983268738,0.0334174931][0.257631987,0.718136013,0]
[-0.000558655011,0.0435677506,0.75474][-0.0123997014,0.999872148,-0.0101026008][0.476458997,0.705606997,0]
[-0.000558655011,0.0435677506,0.75474][-0.0123997014,0.999872148,-0.0101026008][0.476458997,0.705606997,0]
[-0.0358484015,0.0213276502,1.57137501][-0.179069951,0.983268738,0.0334174931][0.257631987,0.718136013,0]
[0.0352897495,0.0222401507,1.57137501][0.171804994,0.985081017,0.00992301013][0.257631987,0.679372013,0]
[0.0705789998,0.0444801003,0.751739979][0.481134057,0.876486123,-0.0168021023][0.477263004,0.666842997,0]
[-0.000558655011,0.0435677506,0.75474][-0.0123997014,0.999872148,-0.0101026008][0.476458997,0.705606997,0]
[0.0352897495,0.0222401507,1.57137501][0.171804994,0.985081017,0.00992301013][0.257631987,0.679372013,0]
[-0.0181057509,-0.0211063493,1.98144996][-0.209416106,-0.977496505,0.0254072137][0.147749007,0.688799977,0]
[0,0,2.39101505][-0.223047107,-0.972959459,0.0600004308][0.0380010009,0.69224602,0]
[-0.114686497,-0.00147119001,1.94081998][-0.209416106,-0.977496505,0.0254072137][0.158636004,0.629751027,0]
[0,0,2.39101505][-0.223047107,-0.972959459,0.0600004308][0.0380010009,0.69224602,0]
[-0.0824375004,-0.00105724495,2.22252989][0.0128203984,-0.999917865,1.66305972e-06][0.083149001,0.647324026,0]
[-0.114686497,-0.00147119001,1.94081998][-0.209416106,-0.977496505,0.0254072137][0.158636004,0.629751027,0]
[0.0181057509,0.0211063493,1.98144996][0.209416106,0.977496505,0.0254072137][0.147749007,0.688454986,0]
[0,0,2.39101505][-0.223047107,-0.972959459,0.0600004308][0.0380010009,0.691901028,0]
[0.114686497,0.00147119001,1.94081998][0.209416106,0.977496505,0.0254072137][0.158636004,0.629405022,0]
[0,0,2.39101505][-0.223047107,-0.972959459,0.0600004308][0.0380010009,0.691901028,0]
[0.0824375004,0.00105724495,2.22252989][-0.0128203984,0.999917865,1.66305972e-06][0.083149001,0.646978021,0]
[0.114686497,0.00147119001,1.94081998][0.209416106,0.977496505,0.0254072137][0.158636004,0.629405022,0]
[0,0,2.39101505][-0.223047107,-0.972959459,0.0600004308][0.0380010009,0.69224602,0]
[-0.0181057509,-0.0211063493,1.98144996][-0.209416106,-0.977496505,0.0254072137][0.147749007,0.688799977,0]
[0.0186408497,-0.0206347499,1.98144996][0.0128154969,-0.998621762,0.0508959889][0.147749007,0.708823979,0]
[0,0,2.39101505][-0.223047107,-0.972959459,0.0600004308][0.0380010009,0.691901028,0]
[0.0181057509,0.0211063493,1.98144996][0.209416106,0.977496505,0.0254072137][0.147749007,0.688454986,0]
[-0.0186408497,0.0206347499,1.98144996][-0.0128154969,0.998621762,0.0508959889][0.147749007,0.708477974,0]
[-0.114686497,-0.00147119001,1.94081998][-0.209416106,-0.977496505,0.0254072137][0.158636004,0.754395008,0]
[-0.0824375004,-0.00105724495,2.22252989][0.0128203984,-0.999917865,1.66305972e-06][0.083149001,0.736823022,0]
[-0.0186408497,0.0206347499,1.98144996][-0.0128154969,0.998621762,0.0508959889][0.147749007,0.708477974,0]
[-0.0824375004,-0.00105724495,2.22252989][0.0128203984,-0.999917865,1.66305972e-06][0.083149001,0.736823022,0]
[0,0,2.39101505][-0.223047107,-0.972959459,0.0600004308][0.0380010009,0.691901028,0]
[-0.0186408497,0.0206347499,1.98144996][-0.0128154969,0.998621762,0.0508959889][0.147749007,0.708477974,0]
[0.114686497,0.00147119001,1.94081998][0.209416106,0.977496505,0.0254072137][0.158636004,0.754742026,0]
[0.0824375004,0.00105724495,2.22252989][-0.0128203984,0.999917865,1.66305972e-06][0.083149001,0.737168014,0]
[0.0186408497,-0.0206347499,1.98144996][0.0128154969,-0.998621762,0.0508959889][0.147749007,0.708823979,0]
[0.0824375004,0.00105724495,2.22252989][-0.0128203984,0.999917865,1.66305972e-06][0.083149001,0.737168014,0]
[0,0,2.39101505][-0.223047107,-0.972959459,0.0600004308][0.0380010009,0.69224602,0]
[0.0186408497,-0.0206347499,1.98144996][0.0128154969,-0.998621762,0.0508959889][0.147749007,0.708823979,0]
[-0.0181057509,-0.0211063493,1.98144996][-0.209416106,-0.977496505,0.0254072137][0.147749007,0.688799977,0]
[-0.0352897495,-0.0222401507,1.57137501][-0.171804994,-0.985081017,0.00992301013][0.257631987,0.679717004,0]
[0.0186408497,-0.0206347499,1.98144996][0.0128154969,-0.998621762,0.0508959889][0.147749007,0.708823979,0]
[-0.0352897495,-0.0222401507,1.57137501][-0.171804994,-0.985081017,0.00992301013][0.257631987,0.679717004,0]
[0.0358484015,-0.0213276502,1.57137501][0.179069951,-0.983268738,0.0334174931][0.257631987,0.718481004,0]
[0.0186408497,-0.0206347499,1.98144996][0.0128154969,-0.998621762,0.0508959889][0.147749007,0.708823979,0]
[0.0186408497,-0.0206347499,1.98144996][0.0128154969,-0.998621762,0.0508959889][0.147749007,0.708823979,0]
[0.0358484015,-0.0213276502,1.57137501][0.179069951,-0.983268738,0.0334174931][0.257631987,0.718481004,0]
[0.114686497,0.00147119001,1.94081998][0.209416106,0.977496505,0.0254072137][0.158636004,0.754742026,0]
[0.0358484015,-0.0213276502,1.57137501][0.179069951,-0.983268738,0.0334174931][0.257631987,0.718481004,0]
[0.146935001,0.00188469503,1.65910494][0.209416106,0.977496505,0.0254072137][0.234124005,0.772314012,0]
[0.114686497,0.00147119001,1.94081998][0.209416106,0.977496505,0.0254072137][0.158636004,0.754742026,0]
[0.0181057509,0.0211063493,1.98144996][0.209416106,0.977496505,0.0254072137][0.147749007,0.688454986,0]
[0.0352897495,0.0222401507,1.57137501][0.171804994,0.985081017,0.00992301013][0.257631987,0.679372013,0]
[-0.0186408497,0.0206347499,1.98144996][-0.0128154969,0.998621762,0.0508959889][0.147749007,0.708477974,0]
[0.0352897495,0.0222401507,1.57137501][0.171804994,0.985081017,0.00992301013][0.257631987,0.679372013,0]
[-0.0358484015,0.0213276502,1.57137501][-0.179069951,0.983268738,0.0334174931][0.257631987,0.718136013,0]
[-0.0186408497,0.0206347499,1.98144996][-0.0128154969,0.998621762,0.0508959889][0.147749007,0.708477974,0]
[-0.0186408497,0.0206347499,1.98144996][-0.0128154969,0.998621762,0.0508959889][0.147749007,0.708477974,0]
[-0.0358484015,0.0213276502,1.57137501][-0.179069951,0.983268738,0.0334174931][0.257631987,0.718136013,0]
[-0.114686497,-0.00147119001,1.94081998][-0.209416106,-0.977496505,0.0254072137][0.158636004,0.754395008,0]
[-0.0358484015,0.0213276502,1.57137501][-0.179069951,0.983268738,0.0334174931][0.257631987,0.718136013,0]
[-0.146935001,-0.00188469503,1.65910494][-0.209416106,-0.977496505,0.0254072137][0.234124005,0.771968007,0]
[-0.114686497,-0.00147119001,1.94081998][-0.209416106,-0.977496505,0.0254072137][0.158636004,0.754395008,0]
